<svg width="322" height="109" viewBox="0 0 322 109" fill="none" xmlns="http://www.w3.org/2000/svg">
<rect width="322" height="109" fill="black"/>
<path d="M59.8203 41.0195H55.4961L55.4727 39.2031H59.3984C60.0469 39.2031 60.6133 39.0938 61.0977 38.875C61.582 38.6562 61.957 38.3438 62.2227 37.9375C62.4961 37.5234 62.6328 37.0312 62.6328 36.4609C62.6328 35.8359 62.5117 35.3281 62.2695 34.9375C62.0352 34.5391 61.6719 34.25 61.1797 34.0703C60.6953 33.8828 60.0781 33.7891 59.3281 33.7891H56V49H53.7383V31.9375H59.3281C60.2031 31.9375 60.9844 32.0273 61.6719 32.207C62.3594 32.3789 62.9414 32.6523 63.418 33.0273C63.9023 33.3945 64.2695 33.8633 64.5195 34.4336C64.7695 35.0039 64.8945 35.6875 64.8945 36.4844C64.8945 37.1875 64.7148 37.8242 64.3555 38.3945C63.9961 38.957 63.4961 39.418 62.8555 39.7773C62.2227 40.1367 61.4805 40.3672 60.6289 40.4688L59.8203 41.0195ZM59.7148 49H54.6055L55.8828 47.1602H59.7148C60.4336 47.1602 61.043 47.0352 61.543 46.7852C62.0508 46.5352 62.4375 46.1836 62.7031 45.7305C62.9688 45.2695 63.1016 44.7266 63.1016 44.1016C63.1016 43.4688 62.9883 42.9219 62.7617 42.4609C62.5352 42 62.1797 41.6445 61.6953 41.3945C61.2109 41.1445 60.5859 41.0195 59.8203 41.0195H56.5977L56.6211 39.2031H61.0273L61.5078 39.8594C62.3281 39.9297 63.0234 40.1641 63.5938 40.5625C64.1641 40.9531 64.5977 41.4531 64.8945 42.0625C65.1992 42.6719 65.3516 43.3438 65.3516 44.0781C65.3516 45.1406 65.1172 46.0391 64.6484 46.7734C64.1875 47.5 63.5352 48.0547 62.6914 48.4375C61.8477 48.8125 60.8555 49 59.7148 49ZM75.0078 33.4492L69.3594 49H67.0508L73.5547 31.9375H75.043L75.0078 33.4492ZM79.7422 49L74.082 33.4492L74.0469 31.9375H75.5352L82.0625 49H79.7422ZM79.4492 42.6836V44.5352H69.8633V42.6836H79.4492ZM93.4414 44.6875C93.4414 44.2891 93.3789 43.9375 93.2539 43.6328C93.1367 43.3203 92.9258 43.0391 92.6211 42.7891C92.3242 42.5391 91.9102 42.3008 91.3789 42.0742C90.8555 41.8477 90.1914 41.6172 89.3867 41.3828C88.543 41.1328 87.7812 40.8555 87.1016 40.5508C86.4219 40.2383 85.8398 39.8828 85.3555 39.4844C84.8711 39.0859 84.5 38.6289 84.2422 38.1133C83.9844 37.5977 83.8555 37.0078 83.8555 36.3438C83.8555 35.6797 83.9922 35.0664 84.2656 34.5039C84.5391 33.9414 84.9297 33.4531 85.4375 33.0391C85.9531 32.6172 86.5664 32.2891 87.2773 32.0547C87.9883 31.8203 88.7812 31.7031 89.6562 31.7031C90.9375 31.7031 92.0234 31.9492 92.9141 32.4414C93.8125 32.9258 94.4961 33.5625 94.9648 34.3516C95.4336 35.1328 95.668 35.9688 95.668 36.8594H93.418C93.418 36.2188 93.2812 35.6523 93.0078 35.1602C92.7344 34.6602 92.3203 34.2695 91.7656 33.9883C91.2109 33.6992 90.5078 33.5547 89.6562 33.5547C88.8516 33.5547 88.1875 33.6758 87.6641 33.918C87.1406 34.1602 86.75 34.4883 86.4922 34.9023C86.2422 35.3164 86.1172 35.7891 86.1172 36.3203C86.1172 36.6797 86.1914 37.0078 86.3398 37.3047C86.4961 37.5938 86.7344 37.8633 87.0547 38.1133C87.3828 38.3633 87.7969 38.5938 88.2969 38.8047C88.8047 39.0156 89.4102 39.2188 90.1133 39.4141C91.082 39.6875 91.918 39.9922 92.6211 40.3281C93.3242 40.6641 93.9023 41.043 94.3555 41.4648C94.8164 41.8789 95.1562 42.3516 95.375 42.8828C95.6016 43.4062 95.7148 44 95.7148 44.6641C95.7148 45.3594 95.5742 45.9883 95.293 46.5508C95.0117 47.1133 94.6094 47.5938 94.0859 47.9922C93.5625 48.3906 92.9336 48.6992 92.1992 48.918C91.4727 49.1289 90.6602 49.2344 89.7617 49.2344C88.9727 49.2344 88.1953 49.125 87.4297 48.9062C86.6719 48.6875 85.9805 48.3594 85.3555 47.9219C84.7383 47.4844 84.2422 46.9453 83.8672 46.3047C83.5 45.6562 83.3164 44.9062 83.3164 44.0547H85.5664C85.5664 44.6406 85.6797 45.1445 85.9062 45.5664C86.1328 45.9805 86.4414 46.3242 86.832 46.5977C87.2305 46.8711 87.6797 47.0742 88.1797 47.207C88.6875 47.332 89.2148 47.3945 89.7617 47.3945C90.5508 47.3945 91.2188 47.2852 91.7656 47.0664C92.3125 46.8477 92.7266 46.5352 93.0078 46.1289C93.2969 45.7227 93.4414 45.2422 93.4414 44.6875ZM100.859 31.9375V49H98.5977V31.9375H100.859ZM108.008 39.6133V41.4648H100.367V39.6133H108.008ZM109.168 31.9375V33.7891H100.367V31.9375H109.168ZM124.133 33.4492L118.484 49H116.176L122.68 31.9375H124.168L124.133 33.4492ZM128.867 49L123.207 33.4492L123.172 31.9375H124.66L131.188 49H128.867ZM128.574 42.6836V44.5352H118.988V42.6836H128.574ZM143.023 31.9375H145.273V43.4805C145.273 44.7617 144.988 45.8281 144.418 46.6797C143.848 47.5312 143.09 48.1719 142.145 48.6016C141.207 49.0234 140.188 49.2344 139.086 49.2344C137.93 49.2344 136.883 49.0234 135.945 48.6016C135.016 48.1719 134.277 47.5312 133.73 46.6797C133.191 45.8281 132.922 44.7617 132.922 43.4805V31.9375H135.16V43.4805C135.16 44.3711 135.324 45.1055 135.652 45.6836C135.98 46.2617 136.438 46.6914 137.023 46.9727C137.617 47.2539 138.305 47.3945 139.086 47.3945C139.875 47.3945 140.562 47.2539 141.148 46.9727C141.742 46.6914 142.203 46.2617 142.531 45.6836C142.859 45.1055 143.023 44.3711 143.023 43.4805V31.9375ZM155.129 31.9375V49H152.902V31.9375H155.129ZM160.613 31.9375V33.7891H147.43V31.9375H160.613ZM175.953 39.9297V41.0078C175.953 42.2891 175.793 43.4375 175.473 44.4531C175.152 45.4688 174.691 46.332 174.09 47.043C173.488 47.7539 172.766 48.2969 171.922 48.6719C171.086 49.0469 170.148 49.2344 169.109 49.2344C168.102 49.2344 167.176 49.0469 166.332 48.6719C165.496 48.2969 164.77 47.7539 164.152 47.043C163.543 46.332 163.07 45.4688 162.734 44.4531C162.398 43.4375 162.23 42.2891 162.23 41.0078V39.9297C162.23 38.6484 162.395 37.5039 162.723 36.4961C163.059 35.4805 163.531 34.6172 164.141 33.9062C164.75 33.1875 165.473 32.6406 166.309 32.2656C167.152 31.8906 168.078 31.7031 169.086 31.7031C170.125 31.7031 171.062 31.8906 171.898 32.2656C172.742 32.6406 173.465 33.1875 174.066 33.9062C174.676 34.6172 175.141 35.4805 175.461 36.4961C175.789 37.5039 175.953 38.6484 175.953 39.9297ZM173.715 41.0078V39.9062C173.715 38.8906 173.609 37.9922 173.398 37.2109C173.195 36.4297 172.895 35.7734 172.496 35.2422C172.098 34.7109 171.609 34.3086 171.031 34.0352C170.461 33.7617 169.812 33.625 169.086 33.625C168.383 33.625 167.746 33.7617 167.176 34.0352C166.613 34.3086 166.129 34.7109 165.723 35.2422C165.324 35.7734 165.016 36.4297 164.797 37.2109C164.578 37.9922 164.469 38.8906 164.469 39.9062V41.0078C164.469 42.0312 164.578 42.9375 164.797 43.7266C165.016 44.5078 165.328 45.168 165.734 45.707C166.148 46.2383 166.637 46.6406 167.199 46.9141C167.77 47.1875 168.406 47.3242 169.109 47.3242C169.844 47.3242 170.496 47.1875 171.066 46.9141C171.637 46.6406 172.117 46.2383 172.508 45.707C172.906 45.168 173.207 44.5078 173.41 43.7266C173.613 42.9375 173.715 42.0312 173.715 41.0078ZM180.055 31.9375H182.246L187.836 45.8477L193.414 31.9375H195.617L188.68 49H186.969L180.055 31.9375ZM179.34 31.9375H181.273L181.59 42.3438V49H179.34V31.9375ZM194.387 31.9375H196.32V49H194.07V42.3438L194.387 31.9375ZM213.43 39.9297V41.0078C213.43 42.2891 213.27 43.4375 212.949 44.4531C212.629 45.4688 212.168 46.332 211.566 47.043C210.965 47.7539 210.242 48.2969 209.398 48.6719C208.562 49.0469 207.625 49.2344 206.586 49.2344C205.578 49.2344 204.652 49.0469 203.809 48.6719C202.973 48.2969 202.246 47.7539 201.629 47.043C201.02 46.332 200.547 45.4688 200.211 44.4531C199.875 43.4375 199.707 42.2891 199.707 41.0078V39.9297C199.707 38.6484 199.871 37.5039 200.199 36.4961C200.535 35.4805 201.008 34.6172 201.617 33.9062C202.227 33.1875 202.949 32.6406 203.785 32.2656C204.629 31.8906 205.555 31.7031 206.562 31.7031C207.602 31.7031 208.539 31.8906 209.375 32.2656C210.219 32.6406 210.941 33.1875 211.543 33.9062C212.152 34.6172 212.617 35.4805 212.938 36.4961C213.266 37.5039 213.43 38.6484 213.43 39.9297ZM211.191 41.0078V39.9062C211.191 38.8906 211.086 37.9922 210.875 37.2109C210.672 36.4297 210.371 35.7734 209.973 35.2422C209.574 34.7109 209.086 34.3086 208.508 34.0352C207.938 33.7617 207.289 33.625 206.562 33.625C205.859 33.625 205.223 33.7617 204.652 34.0352C204.09 34.3086 203.605 34.7109 203.199 35.2422C202.801 35.7734 202.492 36.4297 202.273 37.2109C202.055 37.9922 201.945 38.8906 201.945 39.9062V41.0078C201.945 42.0312 202.055 42.9375 202.273 43.7266C202.492 44.5078 202.805 45.168 203.211 45.707C203.625 46.2383 204.113 46.6406 204.676 46.9141C205.246 47.1875 205.883 47.3242 206.586 47.3242C207.32 47.3242 207.973 47.1875 208.543 46.9141C209.113 46.6406 209.594 46.2383 209.984 45.707C210.383 45.168 210.684 44.5078 210.887 43.7266C211.09 42.9375 211.191 42.0312 211.191 41.0078ZM222.793 31.9375V49H220.566V31.9375H222.793ZM228.277 31.9375V33.7891H215.094V31.9375H228.277ZM233.234 31.9375V49H230.973V31.9375H233.234ZM242.855 46.4102L247.883 31.9375H250.332L244.016 49H242.27L242.855 46.4102ZM238.156 31.9375L243.137 46.4102L243.758 49H242.012L235.707 31.9375H238.156ZM263.469 47.1602V49H254.434V47.1602H263.469ZM254.891 31.9375V49H252.629V31.9375H254.891ZM262.273 39.2734V41.1133H254.434V39.2734H262.273ZM263.352 31.9375V33.7891H254.434V31.9375H263.352ZM51.043 59.9375H56.6914C57.9727 59.9375 59.0547 60.1328 59.9375 60.5234C60.8281 60.9141 61.5039 61.4922 61.9648 62.2578C62.4336 63.0156 62.668 63.9492 62.668 65.0586C62.668 65.8398 62.5078 66.5547 62.1875 67.2031C61.875 67.8438 61.4219 68.3906 60.8281 68.8438C60.2422 69.2891 59.5391 69.6211 58.7188 69.8398L58.0859 70.0859H52.7773L52.7539 68.2461H56.7617C57.5742 68.2461 58.25 68.1055 58.7891 67.8242C59.3281 67.5352 59.7344 67.1484 60.0078 66.6641C60.2812 66.1797 60.418 65.6445 60.418 65.0586C60.418 64.4023 60.2891 63.8281 60.0312 63.3359C59.7734 62.8438 59.3672 62.4648 58.8125 62.1992C58.2656 61.9258 57.5586 61.7891 56.6914 61.7891H53.3047V77H51.043V59.9375ZM61.0156 77L56.8672 69.2656L59.2227 69.2539L63.4297 76.8594V77H61.0156ZM76.6719 75.1602V77H67.6367V75.1602H76.6719ZM68.0938 59.9375V77H65.832V59.9375H68.0938ZM75.4766 67.2734V69.1133H67.6367V67.2734H75.4766ZM76.5547 59.9375V61.7891H67.6367V59.9375H76.5547ZM81.7344 59.9375V77H79.4727V59.9375H81.7344ZM88.8828 67.6133V69.4648H81.2422V67.6133H88.8828ZM90.043 59.9375V61.7891H81.2422V59.9375H90.043ZM95.1641 59.9375V77H92.9023V59.9375H95.1641ZM112.402 59.9375V77H110.129L101.539 63.8398V77H99.2773V59.9375H101.539L110.164 73.1328V59.9375H112.402ZM118.836 59.9375V77H116.574V59.9375H118.836ZM132.043 72.6875C132.043 72.2891 131.98 71.9375 131.855 71.6328C131.738 71.3203 131.527 71.0391 131.223 70.7891C130.926 70.5391 130.512 70.3008 129.98 70.0742C129.457 69.8477 128.793 69.6172 127.988 69.3828C127.145 69.1328 126.383 68.8555 125.703 68.5508C125.023 68.2383 124.441 67.8828 123.957 67.4844C123.473 67.0859 123.102 66.6289 122.844 66.1133C122.586 65.5977 122.457 65.0078 122.457 64.3438C122.457 63.6797 122.594 63.0664 122.867 62.5039C123.141 61.9414 123.531 61.4531 124.039 61.0391C124.555 60.6172 125.168 60.2891 125.879 60.0547C126.59 59.8203 127.383 59.7031 128.258 59.7031C129.539 59.7031 130.625 59.9492 131.516 60.4414C132.414 60.9258 133.098 61.5625 133.566 62.3516C134.035 63.1328 134.27 63.9688 134.27 64.8594H132.02C132.02 64.2188 131.883 63.6523 131.609 63.1602C131.336 62.6602 130.922 62.2695 130.367 61.9883C129.812 61.6992 129.109 61.5547 128.258 61.5547C127.453 61.5547 126.789 61.6758 126.266 61.918C125.742 62.1602 125.352 62.4883 125.094 62.9023C124.844 63.3164 124.719 63.7891 124.719 64.3203C124.719 64.6797 124.793 65.0078 124.941 65.3047C125.098 65.5938 125.336 65.8633 125.656 66.1133C125.984 66.3633 126.398 66.5938 126.898 66.8047C127.406 67.0156 128.012 67.2188 128.715 67.4141C129.684 67.6875 130.52 67.9922 131.223 68.3281C131.926 68.6641 132.504 69.043 132.957 69.4648C133.418 69.8789 133.758 70.3516 133.977 70.8828C134.203 71.4062 134.316 72 134.316 72.6641C134.316 73.3594 134.176 73.9883 133.895 74.5508C133.613 75.1133 133.211 75.5938 132.688 75.9922C132.164 76.3906 131.535 76.6992 130.801 76.918C130.074 77.1289 129.262 77.2344 128.363 77.2344C127.574 77.2344 126.797 77.125 126.031 76.9062C125.273 76.6875 124.582 76.3594 123.957 75.9219C123.34 75.4844 122.844 74.9453 122.469 74.3047C122.102 73.6562 121.918 72.9062 121.918 72.0547H124.168C124.168 72.6406 124.281 73.1445 124.508 73.5664C124.734 73.9805 125.043 74.3242 125.434 74.5977C125.832 74.8711 126.281 75.0742 126.781 75.207C127.289 75.332 127.816 75.3945 128.363 75.3945C129.152 75.3945 129.82 75.2852 130.367 75.0664C130.914 74.8477 131.328 74.5352 131.609 74.1289C131.898 73.7227 132.043 73.2422 132.043 72.6875ZM148.344 67.2734V69.1133H139.109V67.2734H148.344ZM139.461 59.9375V77H137.199V59.9375H139.461ZM150.312 59.9375V77H148.062V59.9375H150.312ZM170.586 71.5742H172.836C172.719 72.6523 172.41 73.6172 171.91 74.4688C171.41 75.3203 170.703 75.9961 169.789 76.4961C168.875 76.9883 167.734 77.2344 166.367 77.2344C165.367 77.2344 164.457 77.0469 163.637 76.6719C162.824 76.2969 162.125 75.7656 161.539 75.0781C160.953 74.3828 160.5 73.5508 160.18 72.582C159.867 71.6055 159.711 70.5195 159.711 69.3242V67.625C159.711 66.4297 159.867 65.3477 160.18 64.3789C160.5 63.4023 160.957 62.5664 161.551 61.8711C162.152 61.1758 162.875 60.6406 163.719 60.2656C164.562 59.8906 165.512 59.7031 166.566 59.7031C167.855 59.7031 168.945 59.9453 169.836 60.4297C170.727 60.9141 171.418 61.5859 171.91 62.4453C172.41 63.2969 172.719 64.2852 172.836 65.4102H170.586C170.477 64.6133 170.273 63.9297 169.977 63.3594C169.68 62.7812 169.258 62.3359 168.711 62.0234C168.164 61.7109 167.449 61.5547 166.566 61.5547C165.809 61.5547 165.141 61.6992 164.562 61.9883C163.992 62.2773 163.512 62.6875 163.121 63.2188C162.738 63.75 162.449 64.3867 162.254 65.1289C162.059 65.8711 161.961 66.6953 161.961 67.6016V69.3242C161.961 70.1602 162.047 70.9453 162.219 71.6797C162.398 72.4141 162.668 73.0586 163.027 73.6133C163.387 74.168 163.844 74.6055 164.398 74.9258C164.953 75.2383 165.609 75.3945 166.367 75.3945C167.328 75.3945 168.094 75.2422 168.664 74.9375C169.234 74.6328 169.664 74.1953 169.953 73.625C170.25 73.0547 170.461 72.3711 170.586 71.5742ZM189.055 67.9297V69.0078C189.055 70.2891 188.895 71.4375 188.574 72.4531C188.254 73.4688 187.793 74.332 187.191 75.043C186.59 75.7539 185.867 76.2969 185.023 76.6719C184.188 77.0469 183.25 77.2344 182.211 77.2344C181.203 77.2344 180.277 77.0469 179.434 76.6719C178.598 76.2969 177.871 75.7539 177.254 75.043C176.645 74.332 176.172 73.4688 175.836 72.4531C175.5 71.4375 175.332 70.2891 175.332 69.0078V67.9297C175.332 66.6484 175.496 65.5039 175.824 64.4961C176.16 63.4805 176.633 62.6172 177.242 61.9062C177.852 61.1875 178.574 60.6406 179.41 60.2656C180.254 59.8906 181.18 59.7031 182.188 59.7031C183.227 59.7031 184.164 59.8906 185 60.2656C185.844 60.6406 186.566 61.1875 187.168 61.9062C187.777 62.6172 188.242 63.4805 188.562 64.4961C188.891 65.5039 189.055 66.6484 189.055 67.9297ZM186.816 69.0078V67.9062C186.816 66.8906 186.711 65.9922 186.5 65.2109C186.297 64.4297 185.996 63.7734 185.598 63.2422C185.199 62.7109 184.711 62.3086 184.133 62.0352C183.562 61.7617 182.914 61.625 182.188 61.625C181.484 61.625 180.848 61.7617 180.277 62.0352C179.715 62.3086 179.23 62.7109 178.824 63.2422C178.426 63.7734 178.117 64.4297 177.898 65.2109C177.68 65.9922 177.57 66.8906 177.57 67.9062V69.0078C177.57 70.0312 177.68 70.9375 177.898 71.7266C178.117 72.5078 178.43 73.168 178.836 73.707C179.25 74.2383 179.738 74.6406 180.301 74.9141C180.871 75.1875 181.508 75.3242 182.211 75.3242C182.945 75.3242 183.598 75.1875 184.168 74.9141C184.738 74.6406 185.219 74.2383 185.609 73.707C186.008 73.168 186.309 72.5078 186.512 71.7266C186.715 70.9375 186.816 70.0312 186.816 69.0078ZM198.5 61.4492L192.852 77H190.543L197.047 59.9375H198.535L198.5 61.4492ZM203.234 77L197.574 61.4492L197.539 59.9375H199.027L205.555 77H203.234ZM202.941 70.6836V72.5352H193.355V70.6836H202.941ZM212.621 59.9375V77H210.395V59.9375H212.621ZM218.105 59.9375V61.7891H204.922V59.9375H218.105ZM223.062 59.9375V77H220.801V59.9375H223.062ZM240.301 59.9375V77H238.027L229.438 63.8398V77H227.176V59.9375H229.438L238.062 73.1328V59.9375H240.301ZM256.918 68.5039V74.75C256.707 75.0625 256.371 75.4141 255.91 75.8047C255.449 76.1875 254.812 76.5234 254 76.8125C253.195 77.0938 252.156 77.2344 250.883 77.2344C249.844 77.2344 248.887 77.0547 248.012 76.6953C247.145 76.3281 246.391 75.7969 245.75 75.1016C245.117 74.3984 244.625 73.5469 244.273 72.5469C243.93 71.5391 243.758 70.3984 243.758 69.125V67.8008C243.758 66.5273 243.906 65.3906 244.203 64.3906C244.508 63.3906 244.953 62.543 245.539 61.8477C246.125 61.1445 246.844 60.6133 247.695 60.2539C248.547 59.8867 249.523 59.7031 250.625 59.7031C251.93 59.7031 253.02 59.9297 253.895 60.3828C254.777 60.8281 255.465 61.4453 255.957 62.2344C256.457 63.0234 256.777 63.9219 256.918 64.9297H254.656C254.555 64.3125 254.352 63.75 254.047 63.2422C253.75 62.7344 253.324 62.3281 252.77 62.0234C252.215 61.7109 251.5 61.5547 250.625 61.5547C249.836 61.5547 249.152 61.6992 248.574 61.9883C247.996 62.2773 247.52 62.6914 247.145 63.2305C246.77 63.7695 246.488 64.4219 246.301 65.1875C246.121 65.9531 246.031 66.8164 246.031 67.7773V69.125C246.031 70.1094 246.145 70.9883 246.371 71.7617C246.605 72.5352 246.938 73.1953 247.367 73.7422C247.797 74.2812 248.309 74.6914 248.902 74.9727C249.504 75.2539 250.168 75.3945 250.895 75.3945C251.699 75.3945 252.352 75.3281 252.852 75.1953C253.352 75.0547 253.742 74.8906 254.023 74.7031C254.305 74.5078 254.52 74.3242 254.668 74.1523V70.332H250.719V68.5039H256.918ZM269.762 72.6875C269.762 72.2891 269.699 71.9375 269.574 71.6328C269.457 71.3203 269.246 71.0391 268.941 70.7891C268.645 70.5391 268.23 70.3008 267.699 70.0742C267.176 69.8477 266.512 69.6172 265.707 69.3828C264.863 69.1328 264.102 68.8555 263.422 68.5508C262.742 68.2383 262.16 67.8828 261.676 67.4844C261.191 67.0859 260.82 66.6289 260.562 66.1133C260.305 65.5977 260.176 65.0078 260.176 64.3438C260.176 63.6797 260.312 63.0664 260.586 62.5039C260.859 61.9414 261.25 61.4531 261.758 61.0391C262.273 60.6172 262.887 60.2891 263.598 60.0547C264.309 59.8203 265.102 59.7031 265.977 59.7031C267.258 59.7031 268.344 59.9492 269.234 60.4414C270.133 60.9258 270.816 61.5625 271.285 62.3516C271.754 63.1328 271.988 63.9688 271.988 64.8594H269.738C269.738 64.2188 269.602 63.6523 269.328 63.1602C269.055 62.6602 268.641 62.2695 268.086 61.9883C267.531 61.6992 266.828 61.5547 265.977 61.5547C265.172 61.5547 264.508 61.6758 263.984 61.918C263.461 62.1602 263.07 62.4883 262.812 62.9023C262.562 63.3164 262.438 63.7891 262.438 64.3203C262.438 64.6797 262.512 65.0078 262.66 65.3047C262.816 65.5938 263.055 65.8633 263.375 66.1133C263.703 66.3633 264.117 66.5938 264.617 66.8047C265.125 67.0156 265.73 67.2188 266.434 67.4141C267.402 67.6875 268.238 67.9922 268.941 68.3281C269.645 68.6641 270.223 69.043 270.676 69.4648C271.137 69.8789 271.477 70.3516 271.695 70.8828C271.922 71.4062 272.035 72 272.035 72.6641C272.035 73.3594 271.895 73.9883 271.613 74.5508C271.332 75.1133 270.93 75.5938 270.406 75.9922C269.883 76.3906 269.254 76.6992 268.52 76.918C267.793 77.1289 266.98 77.2344 266.082 77.2344C265.293 77.2344 264.516 77.125 263.75 76.9062C262.992 76.6875 262.301 76.3594 261.676 75.9219C261.059 75.4844 260.562 74.9453 260.188 74.3047C259.82 73.6562 259.637 72.9062 259.637 72.0547H261.887C261.887 72.6406 262 73.1445 262.227 73.5664C262.453 73.9805 262.762 74.3242 263.152 74.5977C263.551 74.8711 264 75.0742 264.5 75.207C265.008 75.332 265.535 75.3945 266.082 75.3945C266.871 75.3945 267.539 75.2852 268.086 75.0664C268.633 74.8477 269.047 74.5352 269.328 74.1289C269.617 73.7227 269.762 73.2422 269.762 72.6875Z" fill="white"/>
</svg>
