<svg width="250" height="70" viewBox="0 0 250 70" fill="none" xmlns="http://www.w3.org/2000/svg">
<rect width="250" height="70" fill="#ACACAC"/>
<path d="M9.59769 33.5672H4.19587L4.16659 31.2889H9.07069C9.88072 31.2889 10.5883 31.1517 11.1934 30.8773C11.7984 30.603 12.2669 30.211 12.5987 29.7015C12.9403 29.1821 13.1111 28.5648 13.1111 27.8495C13.1111 27.0656 12.9598 26.4286 12.6573 25.9387C12.3645 25.4389 11.9107 25.0764 11.2958 24.851C10.6907 24.6158 9.91975 24.4982 8.98285 24.4982H4.82535V43.5768H2V22.1759H8.98285C10.0759 22.1759 11.0518 22.2886 11.9107 22.5139C12.7695 22.7295 13.4966 23.0725 14.0919 23.5428C14.697 24.0034 15.1557 24.5913 15.468 25.3066C15.7803 26.022 15.9364 26.8794 15.9364 27.8789C15.9364 28.7608 15.712 29.5594 15.263 30.2747C14.8141 30.9802 14.1895 31.5584 13.3892 32.0091C12.5987 32.4599 11.6716 32.7489 10.6078 32.8763L9.59769 33.5672ZM9.46594 43.5768H3.08329L4.67896 41.2691H9.46594C10.3638 41.2691 11.125 41.1123 11.7496 40.7988C12.384 40.4852 12.8671 40.0443 13.1989 39.4759C13.5307 38.8978 13.6966 38.2168 13.6966 37.4328C13.6966 36.6391 13.5551 35.9532 13.2721 35.3751C12.9891 34.7969 12.545 34.3511 11.9399 34.0375C11.3349 33.7239 10.5541 33.5672 9.59769 33.5672H5.57194L5.60122 31.2889H11.1055L11.7057 32.112C12.7305 32.2002 13.599 32.4942 14.3115 32.9939C15.0239 33.4839 15.5656 34.111 15.9364 34.8753C16.317 35.6396 16.5073 36.4823 16.5073 37.4034C16.5073 38.7361 16.2146 39.863 15.629 40.7841C15.0532 41.6954 14.2383 42.3911 13.1843 42.8713C12.1303 43.3416 10.8908 43.5768 9.46594 43.5768Z" fill="white"/>
<path d="M19.5523 35.8013V35.4633C19.5523 34.3168 19.7182 33.2536 20.05 32.2737C20.3818 31.284 20.86 30.4266 21.4846 29.7015C22.1092 28.9665 22.8656 28.3982 23.7537 27.9965C24.6418 27.5849 25.6373 27.3791 26.7401 27.3791C27.8527 27.3791 28.853 27.5849 29.7411 27.9965C30.639 28.3982 31.4002 28.9665 32.0248 29.7015C32.6592 30.4266 33.1422 31.284 33.4741 32.2737C33.8059 33.2536 33.9718 34.3168 33.9718 35.4633V35.8013C33.9718 36.9478 33.8059 38.011 33.4741 38.9909C33.1422 39.9708 32.6592 40.8282 32.0248 41.5631C31.4002 42.2882 30.6438 42.8566 29.7557 43.2681C28.8774 43.6699 27.8819 43.8708 26.7694 43.8708C25.6568 43.8708 24.6564 43.6699 23.7683 43.2681C22.8802 42.8566 22.119 42.2882 21.4846 41.5631C20.86 40.8282 20.3818 39.9708 20.05 38.9909C19.7182 38.011 19.5523 36.9478 19.5523 35.8013ZM22.2605 35.4633V35.8013C22.2605 36.595 22.3532 37.3447 22.5387 38.0502C22.7241 38.7459 23.0022 39.3632 23.3731 39.9022C23.7537 40.4411 24.227 40.8674 24.7931 41.1809C25.3591 41.4847 26.0179 41.6366 26.7694 41.6366C27.5111 41.6366 28.1601 41.4847 28.7164 41.1809C29.2824 40.8674 29.7509 40.4411 30.1217 39.9022C30.4926 39.3632 30.7707 38.7459 30.9561 38.0502C31.1513 37.3447 31.2489 36.595 31.2489 35.8013V35.4633C31.2489 34.6793 31.1513 33.9395 30.9561 33.2438C30.7707 32.5383 30.4877 31.916 30.1071 31.3771C29.7362 30.8283 29.2678 30.3972 28.7017 30.0836C28.1454 29.7701 27.4916 29.6133 26.7401 29.6133C25.9984 29.6133 25.3445 29.7701 24.7784 30.0836C24.2222 30.3972 23.7537 30.8283 23.3731 31.3771C23.0022 31.916 22.7241 32.5383 22.5387 33.2438C22.3532 33.9395 22.2605 34.6793 22.2605 35.4633Z" fill="white"/>
<path d="M47.3519 40.4901V21H50.0748V43.5768H47.5862L47.3519 40.4901ZM36.6947 35.8013V35.4927C36.6947 34.2776 36.8411 33.1752 37.1338 32.1855C37.4364 31.186 37.8609 30.3286 38.4074 29.6133C38.9637 28.898 39.6225 28.3492 40.3837 27.9671C41.1547 27.5751 42.0135 27.3791 42.9602 27.3791C43.9557 27.3791 44.8243 27.5555 45.566 27.9083C46.3174 28.2512 46.9518 28.7559 47.469 29.4222C47.9961 30.0787 48.4108 30.8724 48.7134 31.8033C49.0159 32.7342 49.2257 33.7876 49.3429 34.9635V36.3158C49.2355 37.4818 49.0257 38.5303 48.7134 39.4612C48.4108 40.3921 47.9961 41.1858 47.469 41.8424C46.9518 42.4989 46.3174 43.0035 45.566 43.3563C44.8145 43.6993 43.9361 43.8708 42.9309 43.8708C42.0038 43.8708 41.1547 43.6699 40.3837 43.2681C39.6225 42.8664 38.9637 42.3029 38.4074 41.5778C37.8609 40.8527 37.4364 40.0002 37.1338 39.0203C36.8411 38.0306 36.6947 36.9576 36.6947 35.8013ZM39.4175 35.4927V35.8013C39.4175 36.595 39.4956 37.3398 39.6518 38.0355C39.8177 38.7312 40.0714 39.3436 40.413 39.8728C40.7546 40.4019 41.1889 40.8184 41.7159 41.1221C42.2429 41.4161 42.8724 41.5631 43.6043 41.5631C44.5022 41.5631 45.239 41.372 45.8148 40.9899C46.4004 40.6077 46.8688 40.1031 47.2202 39.4759C47.5715 38.8488 47.8448 38.1678 48.04 37.4328V33.8905C47.9229 33.3516 47.7521 32.8322 47.5276 32.3325C47.3129 31.8229 47.0299 31.3722 46.6785 30.9802C46.337 30.5785 45.9124 30.26 45.4049 30.0248C44.9072 29.7897 44.3168 29.6721 43.6336 29.6721C42.8919 29.6721 42.2526 29.8289 41.7159 30.1424C41.1889 30.4462 40.7546 30.8675 40.413 31.4065C40.0714 31.9356 39.8177 32.553 39.6518 33.2585C39.4956 33.9542 39.4175 34.6989 39.4175 35.4927Z" fill="white"/>
<path d="M58.7412 41.9306L63.1475 27.6731H66.0461L59.6927 46.0314C59.5463 46.4234 59.3511 46.8447 59.1071 47.2955C58.8729 47.756 58.5704 48.1921 58.1995 48.6036C57.8287 49.0152 57.3797 49.3484 56.8527 49.6031C56.3355 49.8677 55.7157 50 54.9935 50C54.7788 50 54.5056 49.9706 54.1738 49.9118C53.8419 49.853 53.6077 49.804 53.4711 49.7648L53.4564 47.5601C53.5345 47.5699 53.6565 47.5797 53.8224 47.5895C53.9981 47.6091 54.1201 47.6189 54.1884 47.6189C54.8032 47.6189 55.3254 47.5356 55.7548 47.369C56.1842 47.2122 56.5453 46.9427 56.8381 46.5606C57.1406 46.1882 57.3992 45.6738 57.6139 45.0172L58.7412 41.9306ZM55.5059 27.6731L59.6195 40.0198L60.3222 42.886L58.3752 43.8855L52.5488 27.6731H55.5059Z" fill="white"/>
<path d="M87.6973 38.1678C87.6973 37.668 87.6192 37.2271 87.4631 36.8449C87.3167 36.4529 87.0532 36.1002 86.6726 35.7866C86.3017 35.4731 85.7845 35.1742 85.1208 34.89C84.4669 34.6058 83.6374 34.3168 82.6322 34.0228C81.5782 33.7092 80.6266 33.3614 79.7775 32.9792C78.9285 32.5873 78.2014 32.1414 77.5963 31.6417C76.9912 31.1419 76.5277 30.5687 76.2056 29.9219C75.8835 29.2752 75.7225 28.5354 75.7225 27.7025C75.7225 26.8696 75.8933 26.1004 76.2349 25.3948C76.5765 24.6893 77.0644 24.0769 77.6988 23.5575C78.3429 23.0284 79.109 22.6168 79.9971 22.3229C80.8852 22.0289 81.8758 21.8819 82.9689 21.8819C84.5694 21.8819 85.926 22.1906 87.0385 22.8079C88.1609 23.4154 89.0148 24.2141 89.6004 25.2038C90.1859 26.1836 90.4787 27.2321 90.4787 28.3492H87.668C87.668 27.5457 87.4972 26.8353 87.1557 26.2179C86.8141 25.5908 86.2968 25.1009 85.6039 24.7481C84.911 24.3855 84.0326 24.2043 82.9689 24.2043C81.9636 24.2043 81.1341 24.3561 80.4802 24.6599C79.8263 24.9637 79.3384 25.3752 79.0163 25.8946C78.704 26.4139 78.5479 27.0068 78.5479 27.6731C78.5479 28.1238 78.6406 28.5354 78.826 28.9078C79.0212 29.2703 79.3189 29.6084 79.719 29.9219C80.1289 30.2355 80.6461 30.5246 81.2707 30.7892C81.9051 31.0537 82.6614 31.3085 83.5398 31.5535C84.75 31.8964 85.7942 32.2786 86.6726 32.6999C87.5509 33.1213 88.2731 33.5966 88.8391 34.1257C89.415 34.645 89.8395 35.2379 90.1127 35.9042C90.3958 36.5607 90.5373 37.3055 90.5373 38.1384C90.5373 39.0105 90.3616 39.7993 90.0103 40.5048C89.6589 41.2103 89.1563 41.813 88.5024 42.3127C87.8486 42.8125 87.0629 43.1995 86.1456 43.4739C85.2379 43.7385 84.223 43.8708 83.1006 43.8708C82.1149 43.8708 81.1439 43.7336 80.1874 43.4592C79.2408 43.1848 78.3771 42.7733 77.5963 42.2245C76.8253 41.6758 76.2056 40.9997 75.7372 40.1961C75.2785 39.3828 75.0491 38.4421 75.0491 37.374H77.8598C77.8598 38.109 78.0013 38.741 78.2844 39.2701C78.5674 39.7895 78.9529 40.2206 79.4408 40.5636C79.9386 40.9066 80.4997 41.1613 81.1243 41.3279C81.7587 41.4847 82.4175 41.5631 83.1006 41.5631C84.0863 41.5631 84.9207 41.4259 85.6039 41.1515C86.2871 40.8772 86.8043 40.4852 87.1557 39.9757C87.5167 39.4661 87.6973 38.8635 87.6973 38.1678Z" fill="white"/>
<path d="M96.4368 21V43.5768H93.7286V21H96.4368ZM95.7927 35.0223L94.6655 34.9782C94.6753 33.8905 94.8363 32.8861 95.1486 31.965C95.4609 31.0341 95.9001 30.2257 96.4661 29.5398C97.0322 28.8539 97.7056 28.3247 98.4863 27.9524C99.2768 27.5702 100.15 27.3791 101.107 27.3791C101.887 27.3791 102.59 27.4869 103.215 27.7025C103.839 27.9083 104.371 28.2414 104.81 28.702C105.259 29.1625 105.601 29.7603 105.835 30.4952C106.069 31.2203 106.186 32.1071 106.186 33.1556V43.5768H103.464V33.1262C103.464 32.2933 103.342 31.627 103.098 31.1272C102.854 30.6177 102.497 30.2502 102.029 30.0248C101.561 29.7897 100.985 29.6721 100.302 29.6721C99.6282 29.6721 99.0133 29.8142 98.457 30.0983C97.9105 30.3825 97.4372 30.7745 97.037 31.2742C96.6467 31.7739 96.3392 32.3472 96.1148 32.9939C95.9001 33.6308 95.7927 34.307 95.7927 35.0223Z" fill="white"/>
<path d="M109.524 35.8013V35.4633C109.524 34.3168 109.69 33.2536 110.022 32.2737C110.354 31.284 110.832 30.4266 111.457 29.7015C112.081 28.9665 112.838 28.3982 113.726 27.9965C114.614 27.5849 115.609 27.3791 116.712 27.3791C117.825 27.3791 118.825 27.5849 119.713 27.9965C120.611 28.3982 121.372 28.9665 121.997 29.7015C122.631 30.4266 123.114 31.284 123.446 32.2737C123.778 33.2536 123.944 34.3168 123.944 35.4633V35.8013C123.944 36.9478 123.778 38.011 123.446 38.9909C123.114 39.9708 122.631 40.8282 121.997 41.5631C121.372 42.2882 120.616 42.8566 119.728 43.2681C118.849 43.6699 117.854 43.8708 116.741 43.8708C115.629 43.8708 114.628 43.6699 113.74 43.2681C112.852 42.8566 112.091 42.2882 111.457 41.5631C110.832 40.8282 110.354 39.9708 110.022 38.9909C109.69 38.011 109.524 36.9478 109.524 35.8013ZM112.232 35.4633V35.8013C112.232 36.595 112.325 37.3447 112.511 38.0502C112.696 38.7459 112.974 39.3632 113.345 39.9022C113.726 40.4411 114.199 40.8674 114.765 41.1809C115.331 41.4847 115.99 41.6366 116.741 41.6366C117.483 41.6366 118.132 41.4847 118.688 41.1809C119.254 40.8674 119.723 40.4411 120.094 39.9022C120.464 39.3632 120.743 38.7459 120.928 38.0502C121.123 37.3447 121.221 36.595 121.221 35.8013V35.4633C121.221 34.6793 121.123 33.9395 120.928 33.2438C120.743 32.5383 120.46 31.916 120.079 31.3771C119.708 30.8283 119.24 30.3972 118.674 30.0836C118.117 29.7701 117.463 29.6133 116.712 29.6133C115.97 29.6133 115.316 29.7701 114.75 30.0836C114.194 30.3972 113.726 30.8283 113.345 31.3771C112.974 31.916 112.696 32.5383 112.511 33.2438C112.325 33.9395 112.232 34.6793 112.232 35.4633Z" fill="white"/>
<path d="M130.048 30.7304V49.6913H127.325V27.6731H129.814L130.048 30.7304ZM140.72 35.4927V35.8013C140.72 36.9576 140.583 38.0306 140.31 39.0203C140.037 40.0002 139.637 40.8527 139.11 41.5778C138.593 42.3029 137.953 42.8664 137.192 43.2681C136.431 43.6699 135.557 43.8708 134.572 43.8708C133.566 43.8708 132.678 43.7042 131.907 43.371C131.136 43.0378 130.483 42.5528 129.946 41.9159C129.409 41.2789 128.98 40.5146 128.658 39.6229C128.345 38.7312 128.13 37.7268 128.013 36.6097V34.9635C128.13 33.7876 128.35 32.7342 128.672 31.8033C128.994 30.8724 129.419 30.0787 129.946 29.4222C130.483 28.7559 131.132 28.2512 131.893 27.9083C132.654 27.5555 133.532 27.3791 134.528 27.3791C135.523 27.3791 136.406 27.5751 137.177 27.9671C137.948 28.3492 138.597 28.898 139.124 29.6133C139.651 30.3286 140.047 31.186 140.31 32.1855C140.583 33.1752 140.72 34.2776 140.72 35.4927ZM137.997 35.8013V35.4927C137.997 34.6989 137.914 33.9542 137.748 33.2585C137.582 32.553 137.324 31.9356 136.973 31.4065C136.631 30.8675 136.192 30.4462 135.655 30.1424C135.118 29.8289 134.479 29.6721 133.737 29.6721C133.054 29.6721 132.459 29.7897 131.951 30.0248C131.454 30.26 131.029 30.5785 130.678 30.9802C130.326 31.3722 130.038 31.8229 129.814 32.3325C129.599 32.8322 129.438 33.3516 129.331 33.8905V37.6974C129.526 38.3833 129.799 39.0301 130.151 39.6376C130.502 40.2353 130.97 40.7204 131.556 41.0928C132.142 41.4553 132.878 41.6366 133.767 41.6366C134.499 41.6366 135.128 41.4847 135.655 41.1809C136.192 40.8674 136.631 40.4411 136.973 39.9022C137.324 39.3632 137.582 38.7459 137.748 38.0502C137.914 37.3447 137.997 36.595 137.997 35.8013Z" fill="white"/>
<path d="M159.824 34.3315H154.349L154.32 31.1272H158.843C159.644 31.1272 160.293 31.0292 160.79 30.8332C161.298 30.6373 161.669 30.3531 161.903 29.9807C162.137 29.5986 162.254 29.1282 162.254 28.5697C162.254 27.9328 162.137 27.4183 161.903 27.0264C161.669 26.6344 161.298 26.3502 160.79 26.1738C160.293 25.9877 159.648 25.8946 158.858 25.8946H156.077V43.5768H151.304V22.1759H158.858C160.136 22.1759 161.278 22.2935 162.284 22.5286C163.289 22.7638 164.143 23.1264 164.845 23.6163C165.558 24.1063 166.099 24.7187 166.47 25.4536C166.841 26.1885 167.027 27.0558 167.027 28.0552C167.027 28.9274 166.831 29.7407 166.441 30.4952C166.06 31.2497 165.446 31.8621 164.596 32.3325C163.747 32.8028 162.61 33.0576 161.186 33.0968L159.824 34.3315ZM159.634 43.5768H153.134L154.861 39.8728H159.634C160.366 39.8728 160.961 39.7552 161.42 39.52C161.879 39.2848 162.215 38.9664 162.43 38.5646C162.645 38.1629 162.752 37.7121 162.752 37.2124C162.752 36.6244 162.649 36.1149 162.445 35.6837C162.249 35.2526 161.937 34.9194 161.508 34.6842C161.088 34.4491 160.527 34.3315 159.824 34.3315H155.55L155.579 31.1272H160.805L161.918 32.3913C163.274 32.3619 164.357 32.5824 165.167 33.0527C165.987 33.5133 166.578 34.1208 166.939 34.8753C167.3 35.6298 167.48 36.4285 167.48 37.2712C167.48 38.6626 167.183 39.8287 166.587 40.7694C165.992 41.7003 165.109 42.4009 163.938 42.8713C162.776 43.3416 161.342 43.5768 159.634 43.5768Z" fill="white"/>
<path d="M188.341 32.406V33.3614C188.341 34.988 188.117 36.448 187.668 37.7415C187.229 39.035 186.599 40.1374 185.779 41.0487C184.969 41.96 184.003 42.6606 182.881 43.1505C181.768 43.6307 180.534 43.8708 179.177 43.8708C177.82 43.8708 176.581 43.6307 175.459 43.1505C174.336 42.6606 173.36 41.96 172.531 41.0487C171.711 40.1374 171.077 39.035 170.628 37.7415C170.179 36.448 169.954 34.988 169.954 33.3614V32.406C169.954 30.7794 170.179 29.3193 170.628 28.0258C171.077 26.7226 171.706 25.6153 172.516 24.704C173.336 23.7927 174.307 23.097 175.429 22.6168C176.552 22.1269 177.791 21.8819 179.148 21.8819C180.504 21.8819 181.744 22.1269 182.866 22.6168C183.988 23.097 184.955 23.7927 185.765 24.704C186.584 25.6153 187.219 26.7226 187.668 28.0258C188.117 29.3193 188.341 30.7794 188.341 32.406ZM183.525 33.3614V32.3766C183.525 31.2889 183.427 30.3286 183.232 29.4957C183.037 28.653 182.754 27.9475 182.383 27.3791C182.012 26.8108 181.553 26.3845 181.007 26.1004C180.46 25.8064 179.841 25.6594 179.148 25.6594C178.426 25.6594 177.796 25.8064 177.259 26.1004C176.723 26.3845 176.269 26.8108 175.898 27.3791C175.537 27.9475 175.259 28.653 175.063 29.4957C174.878 30.3286 174.785 31.2889 174.785 32.3766V33.3614C174.785 34.4393 174.878 35.3996 175.063 36.2423C175.259 37.0752 175.542 37.7807 175.913 38.3588C176.283 38.937 176.737 39.373 177.274 39.667C177.82 39.961 178.455 40.108 179.177 40.108C179.87 40.108 180.485 39.961 181.022 39.667C181.568 39.373 182.027 38.937 182.398 38.3588C182.768 37.7807 183.047 37.0752 183.232 36.2423C183.427 35.3996 183.525 34.4393 183.525 33.3614Z" fill="white"/>
<path d="M209.041 32.406V33.3614C209.041 34.988 208.816 36.448 208.367 37.7415C207.928 39.035 207.299 40.1374 206.479 41.0487C205.669 41.96 204.703 42.6606 203.58 43.1505C202.468 43.6307 201.233 43.8708 199.877 43.8708C198.52 43.8708 197.281 43.6307 196.158 43.1505C195.036 42.6606 194.06 41.96 193.231 41.0487C192.411 40.1374 191.776 39.035 191.327 37.7415C190.879 36.448 190.654 34.988 190.654 33.3614V32.406C190.654 30.7794 190.879 29.3193 191.327 28.0258C191.776 26.7226 192.406 25.6153 193.216 24.704C194.036 23.7927 195.007 23.097 196.129 22.6168C197.251 22.1269 198.491 21.8819 199.847 21.8819C201.204 21.8819 202.443 22.1269 203.566 22.6168C204.688 23.097 205.654 23.7927 206.464 24.704C207.284 25.6153 207.918 26.7226 208.367 28.0258C208.816 29.3193 209.041 30.7794 209.041 32.406ZM204.225 33.3614V32.3766C204.225 31.2889 204.127 30.3286 203.932 29.4957C203.737 28.653 203.454 27.9475 203.083 27.3791C202.712 26.8108 202.253 26.3845 201.707 26.1004C201.16 25.8064 200.54 25.6594 199.847 25.6594C199.125 25.6594 198.496 25.8064 197.959 26.1004C197.422 26.3845 196.968 26.8108 196.598 27.3791C196.236 27.9475 195.958 28.653 195.763 29.4957C195.578 30.3286 195.485 31.2889 195.485 32.3766V33.3614C195.485 34.4393 195.578 35.3996 195.763 36.2423C195.958 37.0752 196.241 37.7807 196.612 38.3588C196.983 38.937 197.437 39.373 197.974 39.667C198.52 39.961 199.155 40.108 199.877 40.108C200.57 40.108 201.184 39.961 201.721 39.667C202.268 39.373 202.726 38.937 203.097 38.3588C203.468 37.7807 203.746 37.0752 203.932 36.2423C204.127 35.3996 204.225 34.4393 204.225 33.3614Z" fill="white"/>
<path d="M223.021 37.9326C223.021 37.57 222.967 37.2467 222.86 36.9625C222.753 36.6685 222.558 36.3991 222.275 36.1541C221.992 35.9091 221.591 35.6641 221.074 35.4192C220.557 35.1644 219.879 34.9047 219.039 34.6401C218.083 34.3266 217.17 33.9738 216.302 33.5819C215.443 33.1801 214.677 32.7146 214.003 32.1855C213.33 31.6564 212.798 31.039 212.408 30.3335C212.027 29.628 211.837 28.8049 211.837 27.8642C211.837 26.9529 212.037 26.1298 212.437 25.3948C212.837 24.6599 213.398 24.0328 214.121 23.5134C214.843 22.9843 215.692 22.5825 216.668 22.3082C217.644 22.024 218.717 21.8819 219.888 21.8819C221.45 21.8819 222.821 22.1612 224.002 22.7197C225.193 23.2685 226.12 24.0426 226.783 25.0421C227.447 26.0318 227.779 27.1831 227.779 28.4962H223.036C223.036 27.9181 222.914 27.4085 222.67 26.9676C222.436 26.5168 222.074 26.164 221.587 25.9093C221.108 25.6545 220.508 25.5271 219.786 25.5271C219.083 25.5271 218.493 25.6349 218.015 25.8505C217.546 26.0563 217.19 26.3404 216.946 26.703C216.712 27.0656 216.595 27.4624 216.595 27.8936C216.595 28.2365 216.682 28.5501 216.858 28.8343C217.044 29.1086 217.307 29.3683 217.649 29.6133C218 29.8485 218.429 30.0738 218.937 30.2894C219.444 30.505 220.025 30.7108 220.679 30.9067C221.821 31.2693 222.831 31.6711 223.709 32.112C224.597 32.553 225.344 33.0527 225.949 33.6113C226.554 34.1698 227.008 34.8018 227.31 35.5073C227.623 36.2129 227.779 37.0115 227.779 37.9032C227.779 38.8537 227.593 39.6964 227.223 40.4313C226.861 41.1662 226.334 41.7934 225.642 42.3127C224.958 42.8223 224.139 43.2093 223.182 43.4739C222.226 43.7385 221.157 43.8708 219.976 43.8708C218.903 43.8708 217.844 43.7336 216.8 43.4592C215.755 43.175 214.809 42.7439 213.96 42.1657C213.12 41.5876 212.447 40.8527 211.939 39.961C211.442 39.0595 211.193 37.9914 211.193 36.7567H215.965C215.965 37.4034 216.058 37.9522 216.243 38.4029C216.429 38.8439 216.692 39.2016 217.034 39.4759C217.385 39.7503 217.81 39.9463 218.307 40.0639C218.805 40.1814 219.361 40.2402 219.976 40.2402C220.689 40.2402 221.264 40.1423 221.704 39.9463C222.153 39.7405 222.484 39.4612 222.699 39.1085C222.914 38.7557 223.021 38.3637 223.021 37.9326Z" fill="white"/>
<path d="M240.515 22.1759V43.5768H235.757V22.1759H240.515ZM247 22.1759V25.8946H229.404V22.1759H247Z" fill="white"/>
</svg>
