<svg xmlns="http://www.w3.org/2000/svg" width="24" height="17.554" viewBox="0 0 24 17.554">
  <g id="locke_logo_24dp" transform="translate(-3 -5.3)">
    <circle id="Ellipse_1" data-name="Ellipse 1" cx="2.057" cy="2.057" r="2.057" transform="translate(9.72 5.3)" fill="#f1732a"/>
    <circle id="Ellipse_2" data-name="Ellipse 2" cx="2.057" cy="2.057" r="2.057" transform="translate(6.429 8.591)" fill="#f1732a"/>
    <circle id="Ellipse_3" data-name="Ellipse 3" cx="2.057" cy="2.057" r="2.057" transform="translate(3 12.02)" fill="#f1732a"/>
    <circle id="Ellipse_4" data-name="Ellipse 4" cx="2.057" cy="2.057" r="2.057" transform="translate(6.429 15.449)" fill="#f1732a"/>
    <circle id="Ellipse_5" data-name="Ellipse 5" cx="2.057" cy="2.057" r="2.057" transform="translate(9.72 18.74)" fill="#f1732a"/>
    <circle id="Ellipse_6" data-name="Ellipse 6" cx="2.057" cy="2.057" r="2.057" transform="translate(13.011 15.449)" fill="#f1732a"/>
    <circle id="Ellipse_7" data-name="Ellipse 7" cx="2.057" cy="2.057" r="2.057" transform="translate(16.44 12.02)" fill="#f1732a"/>
    <circle id="Ellipse_8" data-name="Ellipse 8" cx="2.057" cy="2.057" r="2.057" transform="translate(19.731 8.591)" fill="#f1732a"/>
    <circle id="Ellipse_9" data-name="Ellipse 9" cx="1.92" cy="1.92" r="1.92" transform="translate(16.577 5.574)" fill="#3c3c3c"/>
    <circle id="Ellipse_10" data-name="Ellipse 10" cx="1.92" cy="1.92" r="1.92" transform="translate(13.149 8.729)" fill="#3c3c3c"/>
    <circle id="Ellipse_11" data-name="Ellipse 11" cx="1.92" cy="1.92" r="1.92" transform="translate(9.857 12.157)" fill="#3c3c3c"/>
    <circle id="Ellipse_12" data-name="Ellipse 12" cx="1.92" cy="1.92" r="1.92" transform="translate(23.16 12.157)" fill="#3c3c3c"/>
    <circle id="Ellipse_13" data-name="Ellipse 13" cx="1.92" cy="1.92" r="1.92" transform="translate(19.869 15.586)" fill="#3c3c3c"/>
    <circle id="Ellipse_14" data-name="Ellipse 14" cx="1.92" cy="1.92" r="1.92" transform="translate(16.577 18.877)" fill="#3c3c3c"/>
  </g>
</svg>
